<!DOCTYPE svg PUBLIC "-//W3C//DTD SVG 1.1//EN" "http://www.w3.org/Graphics/SVG/1.1/DTD/svg11.dtd">
<!-- Uploaded to: SVG Repo, www.svgrepo.com, Transformed by: SVG Repo Mixer Tools -->
<svg width="256px" height="256px" viewBox="-15.84 -15.84 79.68 79.68" fill="none" xmlns="http://www.w3.org/2000/svg" stroke="#fffffff" transform="matrix(1, 0, 0, 1, 0, 0)rotate(0)">
<g id="SVGRepo_bgCarrier" stroke-width="0" transform="translate(8.16,8.16), scale(0.66)">
<rect x="-15.84" y="-15.84" width="79.68" height="79.68" rx="39.84" fill="#709ba9" strokewidth="0"/>
</g>
<g id="SVGRepo_tracerCarrier" stroke-linecap="round" stroke-linejoin="round" stroke="#CCCCCC" stroke-width="0.096"/>
<g id="SVGRepo_iconCarrier"> <rect width="48" height="48" fill="white" fill-opacity="0.01"/> <path d="M15.3399 9L6.67969 14V24V34L15.3399 39L24.0002 44L32.6605 39L41.3207 34V24V14L32.6605 9L24.0002 4L15.3399 9Z" fill="#ff8c2e" stroke="#000000" stroke-width="2.928" stroke-linecap="round" stroke-linejoin="round"/> <path d="M24.0002 24V11M24.0002 24L34.3925 30M24.0002 24L13.6079 30" stroke="white" stroke-width="2.928" stroke-linecap="round" stroke-linejoin="round"/> <path d="M32.4438 15.875L35.2584 17.5V20.75M26.8146 35.375L24 37L21.1854 35.375M12.7417 20.75V17.5L15.5563 15.875" stroke="white" stroke-width="2.928" stroke-linecap="round" stroke-linejoin="round"/> </g>
</svg>